<svg height="512" viewBox="0 0 60 60" width="512" xmlns="http://www.w3.org/2000/svg"><g id="Page-1" fill="none" fill-rule="evenodd"><g id="003---Mobile-Payment" fill="rgb(0,0,0)" fill-rule="nonzero"><path id="Shape" d="m55 13h-19v-9c0-2.209139-1.790861-4-4-4h-28c-2.209139 0-4 1.790861-4 4v52c0 2.209139 1.790861 4 4 4h28c2.209139 0 4-1.790861 4-4v-13h19c2.7600532-.0033061 4.9966939-2.2399468 5-5v-20c-.0033061-2.7600532-2.2399468-4.9966939-5-5zm3 5v12h-28c-.5522847 0-1 .4477153-1 1s.4477153 1 1 1h28v4h-40v-4h5c.5522847 0 1-.4477153 1-1s-.4477153-1-1-1h-5v-12c0-1.6568542 1.3431458-3 3-3h34c1.6568542 0 3 1.3431458 3 3zm-32.308-16-1.282 1.368c-.378896.40269492-.907076.63133176-1.46.632h-9.9c-.5527743.00000995-1.0809024-.22876112-1.459-.632l-1.282-1.368zm6.308 56h-28c-1.1045695 0-2-.8954305-2-2v-1.556c.60534654.3599241 1.29574677.5518554 2 .556h28c.7042532-.0041446 1.3946535-.1960759 2-.556v1.556c0 1.1045695-.8954305 2-2 2zm2-7c0 1.1045695-.8954305 2-2 2h-28c-1.1045695 0-2-.8954305-2-2v-47c0-1.1045695.8954305-2 2-2h3.567l2.565 2.735c.7567936.80574999 1.8125738 1.2634477 2.918 1.265h9.9c1.1054015-.00208587 2.1611681-.45925919 2.919-1.264l2.564-2.736h3.567c1.1045695 0 2 .8954305 2 2v9h-13c-2.7600532.0033061-4.9966939 2.2399468-5 5v2h-3c-.5522847 0-1 .4477153-1 1s.4477153 1 1 1h3v5h-5c-.5522847 0-1 .4477153-1 1s.4477153 1 1 1h5v5h-3c-.5522847 0-1 .4477153-1 1s.4477153 1 1 1h3v2c.0033061 2.7600532 2.2399468 4.9966939 5 5h13zm21-10h-34c-1.6568542 0-3-1.3431458-3-3h40c0 1.6568542-1.3431458 3-3 3z"/><path id="Shape" d="m8 22h1c.55228475 0 1-.4477153 1-1s-.44771525-1-1-1h-1c-.55228475 0-1 .4477153-1 1s.44771525 1 1 1z"/><path id="Shape" d="m9 34h-1c-.55228475 0-1 .4477153-1 1s.44771525 1 1 1h1c.55228475 0 1-.4477153 1-1s-.44771525-1-1-1z"/><path id="Shape" d="m8 28c0-.5522847-.44771525-1-1-1h-2c-.55228475 0-1 .4477153-1 1s.44771525 1 1 1h2c.55228475 0 1-.4477153 1-1z"/><path id="Shape" d="m49 23c.740399-.0026037 1.4533329-.2806479 2-.78 1.1986086 1.0894491 3.0455949 1.0307294 4.172581-.1326554s1.1269861-3.0113044 0-4.1746892-2.9739724-1.2221045-4.172581-.1326554c-.9933291-.9028176-2.4654891-1.0359148-3.6046342-.325893s-1.6680028 2.0903404-1.2949262 3.3797574c.3730765 1.289417 1.557279 2.1740833 2.8995604 2.1661356zm4-4c.5522847 0 1 .4477153 1 1s-.4477153 1-1 1-1-.4477153-1-1 .4477153-1 1-1zm-4 0c.5522847 0 1 .4477153 1 1s-.4477153 1-1 1-1-.4477153-1-1 .4477153-1 1-1z"/><path id="Shape" d="m22 23h1c.5522847 0 1-.4477153 1-1s-.4477153-1-1-1h-1c-.5522847 0-1 .4477153-1 1s.4477153 1 1 1z"/><path id="Shape" d="m27 23h3c.5522847 0 1-.4477153 1-1s-.4477153-1-1-1h-3c-.5522847 0-1 .4477153-1 1s.4477153 1 1 1z"/><path id="Shape" d="m33 25h-11c-.5522847 0-1 .4477153-1 1s.4477153 1 1 1h11c.5522847 0 1-.4477153 1-1s-.4477153-1-1-1z"/></g></g></svg>